<svg xmlns="http://www.w3.org/2000/svg" xmlns:xlink="http://www.w3.org/1999/xlink" width="249.868" height="215" viewBox="0 0 249.868 215">
  <defs>
    <clipPath id="clip-path">
      <rect id="Rectangle_19" data-name="Rectangle 19" width="249.868" height="215" fill="none" stroke="#66e0ce" stroke-width="5"/>
    </clipPath>
  </defs>
  <g id="Group_3" data-name="Group 3" transform="translate(0 0)">
    <g id="Group_1" data-name="Group 1" transform="translate(0 0)" clip-path="url(#clip-path)">
      <path id="Path_2" data-name="Path 2" d="M14.527,0A14.559,14.559,0,0,0,0,14.527V159.8a14.558,14.558,0,0,0,14.527,14.525h87.162v34.865H87.162a2.906,2.906,0,0,0,0,5.811h75.451a2.908,2.908,0,1,0,0-5.811H148.176V174.321h87.162A14.56,14.56,0,0,0,249.868,159.8V14.527A14.561,14.561,0,0,0,235.338,0Zm0,5.809H235.338a8.636,8.636,0,0,1,8.718,8.718V159.8a8.636,8.636,0,0,1-8.718,8.716H14.527A8.634,8.634,0,0,1,5.811,159.8V14.527a8.634,8.634,0,0,1,8.716-8.718M142,40.583a2.968,2.968,0,0,0-2.359,1.907l-34.865,87.162a2.917,2.917,0,1,0,5.448,2.089L145.09,44.578A3.064,3.064,0,0,0,142,40.583ZM84.166,55.11a2.923,2.923,0,0,0-1.361.455l-52.3,29.054a3.065,3.065,0,0,0,0,5.084l52.3,29.054a2.928,2.928,0,1,0,2.9-5.084L37.951,87.162,85.71,60.649a2.906,2.906,0,0,0-1.543-5.539m81.171,0a2.906,2.906,0,0,0-1.182,5.539l47.758,26.513-47.758,26.511a2.928,2.928,0,1,0,2.907,5.084l52.3-29.054a3.062,3.062,0,0,0,0-5.084l-52.3-29.054a2.931,2.931,0,0,0-1.725-.455M107.5,174.321h34.865v34.865H107.5Z" transform="translate(0 -0.001)" fill="#66e0ce" stroke="#66e0ce" stroke-width="5"/>
      <path id="Path_3" data-name="Path 3" d="M14.527,0A14.559,14.559,0,0,0,0,14.527V159.8a14.558,14.558,0,0,0,14.527,14.525h87.162v34.865H87.162a2.906,2.906,0,0,0,0,5.811h75.451a2.908,2.908,0,1,0,0-5.811H148.176V174.321h87.162A14.56,14.56,0,0,0,249.868,159.8V14.527A14.561,14.561,0,0,0,235.338,0Zm0,5.809H235.338a8.636,8.636,0,0,1,8.718,8.718V159.8a8.636,8.636,0,0,1-8.718,8.716H14.527A8.634,8.634,0,0,1,5.811,159.8V14.527a8.634,8.634,0,0,1,8.716-8.718M142,40.583a2.968,2.968,0,0,0-2.359,1.907l-34.865,87.162a2.917,2.917,0,1,0,5.448,2.089L145.09,44.578A3.064,3.064,0,0,0,142,40.583ZM84.166,55.11a2.923,2.923,0,0,0-1.361.455l-52.3,29.054a3.065,3.065,0,0,0,0,5.084l52.3,29.054a2.928,2.928,0,1,0,2.9-5.084L37.951,87.162,85.71,60.649a2.906,2.906,0,0,0-1.543-5.539m81.171,0a2.906,2.906,0,0,0-1.182,5.539l47.758,26.513-47.758,26.511a2.928,2.928,0,1,0,2.907,5.084l52.3-29.054a3.062,3.062,0,0,0,0-5.084l-52.3-29.054a2.931,2.931,0,0,0-1.725-.455M107.5,174.321h34.865v34.865H107.5Z" transform="translate(581 0)" fill="#292f38" stroke="#66e0ce" stroke-width="5"/>
    </g>
  </g>
</svg>
